<?xml version="1.0" encoding="UTF-8"?>
<svg xmlns="http://www.w3.org/2000/svg" xmlns:xlink="http://www.w3.org/1999/xlink" width="32px" height="37px" viewBox="0 0 32 37" version="1.1">
<g id="surface1">
<path style=" stroke:none;fill-rule:nonzero;fill:rgb(0%,0%,0%);fill-opacity:1;" d="M 2.5 32.519531 C 3.933594 32.386719 7.933594 32.042969 9.1875 30.117188 C 9.3125 29.921875 10.359375 28.195312 10.359375 28.183594 L 14.679688 29.824219 C 14.773438 30.292969 12.238281 33.816406 11.78125 34.199219 C 11.191406 34.683594 10.628906 34.949219 10.035156 35.175781 C 8.035156 35.925781 6.316406 36.53125 4.046875 36.910156 Z M 11.429688 14.90625 L 9.585938 21.570312 C 9.144531 23.726562 9.621094 25.550781 11.65625 26.808594 C 12.71875 27.464844 13.015625 27.433594 14.230469 27.785156 L 19.839844 29.066406 C 20.171875 29.140625 26.835938 34.515625 27.460938 35.054688 L 30.339844 32.46875 C 30.757812 32.09375 23.699219 25.890625 22.46875 25.28125 C 16.628906 22.394531 16.382812 25.695312 18.582031 17.367188 C 19.699219 18.453125 20.542969 19.664062 22.660156 20.488281 C 25.238281 21.144531 26.675781 20.242188 28.816406 19.546875 L 32.003906 18.40625 L 30.628906 14.539062 L 27.445312 15.679688 C 27.355469 15.710938 27.125 15.792969 26.726562 15.933594 C 25.734375 16.171875 24.855469 16.800781 24.226562 16.5 C 22.140625 15.496094 20.90625 11.257812 15.085938 10.796875 C 14.210938 10.726562 12.585938 10.507812 11.316406 10.472656 C 6.597656 10.199219 4.988281 11.960938 2.40625 14.605469 C 1.21875 15.75 1.199219 15.738281 0 16.871094 L 3.050781 19.898438 C 4.261719 18.753906 4.289062 18.761719 5.484375 17.605469 C 6.570312 16.570312 7.3125 15.503906 8.429688 15.046875 C 9.152344 14.75 10.089844 14.875 11.203125 14.894531 C 11.28125 14.902344 11.355469 14.902344 11.429688 14.90625 Z M 16.875 0.308594 C 19.222656 -0.449219 21.742188 0.828125 22.507812 3.167969 C 23.265625 5.507812 21.984375 8.019531 19.632812 8.777344 C 17.289062 9.539062 14.769531 8.257812 14.003906 5.917969 C 13.242188 3.578125 14.53125 1.066406 16.875 0.308594 Z M 16.875 0.308594 "/>
</g>
</svg>
